<svg width="200" height="64" viewBox="0 0 200 64" fill="none" xmlns="http://www.w3.org/2000/svg">
<path d="M98.1818 28.375C97.9432 27.5455 97.608 26.8125 97.1761 26.1761C96.7443 25.5284 96.2159 24.983 95.5909 24.5398C94.9773 24.0852 94.2727 23.7386 93.4773 23.5C92.6932 23.2614 91.8239 23.142 90.8693 23.142C89.0852 23.142 87.517 23.5852 86.1648 24.4716C84.8239 25.358 83.7784 26.6477 83.0284 28.3409C82.2784 30.0227 81.9034 32.0795 81.9034 34.5114C81.9034 36.9432 82.2727 39.0114 83.0114 40.7159C83.75 42.4205 84.7955 43.7216 86.1477 44.6193C87.5 45.5057 89.0966 45.9489 90.9375 45.9489C92.608 45.9489 94.0341 45.6534 95.2159 45.0625C96.4091 44.4602 97.3182 43.6136 97.9432 42.5227C98.5795 41.4318 98.8977 40.142 98.8977 38.6534L100.398 38.875H91.3977V33.3182H106.006V37.7159C106.006 40.7841 105.358 43.4205 104.062 45.625C102.767 47.8182 100.983 49.5114 98.7102 50.7045C96.4375 51.8864 93.8352 52.4773 90.9034 52.4773C87.6307 52.4773 84.7557 51.7557 82.2784 50.3125C79.8011 48.858 77.8693 46.7955 76.483 44.125C75.108 41.4432 74.4205 38.2614 74.4205 34.5795C74.4205 31.75 74.8295 29.2273 75.6477 27.0114C76.4773 24.7841 77.6364 22.8977 79.125 21.3523C80.6136 19.8068 82.3466 18.6307 84.3239 17.8239C86.3011 17.017 88.4432 16.6136 90.75 16.6136C92.7273 16.6136 94.5682 16.9034 96.2727 17.483C97.9773 18.0511 99.4886 18.858 100.807 19.9034C102.136 20.9489 103.222 22.1932 104.062 23.6364C104.903 25.0682 105.443 26.6477 105.682 28.375H98.1818ZM110.413 52V25.8182H117.453V30.3864H117.726C118.203 28.7614 119.004 27.5341 120.129 26.7045C121.254 25.8636 122.55 25.4432 124.016 25.4432C124.379 25.4432 124.771 25.4659 125.192 25.5114C125.612 25.5568 125.982 25.6193 126.3 25.6989V32.142C125.959 32.0398 125.487 31.9489 124.885 31.8693C124.283 31.7898 123.732 31.75 123.232 31.75C122.163 31.75 121.209 31.983 120.368 32.4489C119.538 32.9034 118.879 33.5398 118.391 34.358C117.913 35.1761 117.675 36.1193 117.675 37.1875V52H110.413ZM129.054 52V25.8182H136.315V52H129.054ZM132.702 22.4432C131.622 22.4432 130.696 22.0852 129.923 21.3693C129.162 20.642 128.781 19.7727 128.781 18.7614C128.781 17.7614 129.162 16.9034 129.923 16.1875C130.696 15.4602 131.622 15.0966 132.702 15.0966C133.781 15.0966 134.702 15.4602 135.463 16.1875C136.236 16.9034 136.622 17.7614 136.622 18.7614C136.622 19.7727 136.236 20.642 135.463 21.3693C134.702 22.0852 133.781 22.4432 132.702 22.4432ZM150.78 52.4261C148.791 52.4261 146.99 51.9148 145.376 50.892C143.774 49.858 142.501 48.3409 141.558 46.3409C140.626 44.3295 140.161 41.8636 140.161 38.9432C140.161 35.9432 140.643 33.4489 141.609 31.4602C142.575 29.4602 143.859 27.9659 145.462 26.9773C147.075 25.9773 148.842 25.4773 150.763 25.4773C152.229 25.4773 153.45 25.7273 154.428 26.2273C155.416 26.7159 156.212 27.3295 156.814 28.0682C157.428 28.7955 157.893 29.5114 158.212 30.2159H158.433V17.0909H165.678V52H158.518V47.8068H158.212C157.871 48.5341 157.388 49.2557 156.763 49.9716C156.149 50.6761 155.348 51.2614 154.359 51.7273C153.382 52.1932 152.189 52.4261 150.78 52.4261ZM153.081 46.6477C154.251 46.6477 155.24 46.3295 156.047 45.6932C156.865 45.0455 157.49 44.142 157.922 42.983C158.365 41.8239 158.587 40.4659 158.587 38.9091C158.587 37.3523 158.371 36 157.939 34.8523C157.507 33.7045 156.882 32.8182 156.064 32.1932C155.246 31.5682 154.251 31.2557 153.081 31.2557C151.888 31.2557 150.882 31.5795 150.064 32.2273C149.246 32.875 148.626 33.7727 148.206 34.9205C147.786 36.0682 147.575 37.3977 147.575 38.9091C147.575 40.4318 147.786 41.7784 148.206 42.9489C148.638 44.108 149.257 45.017 150.064 45.6761C150.882 46.3239 151.888 46.6477 153.081 46.6477Z" fill="#2D3436"/>
<path d="M47.25 17.6H22.75C20.817 17.6 19.25 19.0327 19.25 20.8V43.2C19.25 44.9673 20.817 46.4 22.75 46.4H47.25C49.183 46.4 50.75 44.9673 50.75 43.2V20.8C50.75 19.0327 49.183 17.6 47.25 17.6Z" stroke="#6C5CE7" stroke-width="3.5" stroke-linecap="round" stroke-linejoin="round"/>
<path d="M19.25 27.2H50.75" stroke="#6C5CE7" stroke-width="3.5" stroke-linecap="round" stroke-linejoin="round"/>
<path d="M29.75 46.4V27.2" stroke="#6C5CE7" stroke-width="3.5" stroke-linecap="round" stroke-linejoin="round"/>
</svg>
